<svg width="48" height="48" viewBox="0 0 48 48" fill="none" xmlns="http://www.w3.org/2000/svg">
<g id="user">
<path id="Vector" d="M8 46C8 41.7565 9.68571 37.6869 12.6863 34.6863C15.6869 31.6857 19.7565 30 24 30C28.2435 30 32.3131 31.6857 35.3137 34.6863C38.3143 37.6869 40 41.7565 40 46H36C36 42.8174 34.7357 39.7652 32.4853 37.5147C30.2348 35.2643 27.1826 34 24 34C20.8174 34 17.7652 35.2643 15.5147 37.5147C13.2643 39.7652 12 42.8174 12 46H8ZM24 28C17.37 28 12 22.63 12 16C12 9.37 17.37 4 24 4C30.63 4 36 9.37 36 16C36 22.63 30.63 28 24 28ZM24 24C28.42 24 32 20.42 32 16C32 11.58 28.42 8 24 8C19.58 8 16 11.58 16 16C16 20.42 19.58 24 24 24Z" fill="#2E54DA"/>
</g>
</svg>
