<svg width="170" height="32" viewBox="0 0 170 32" fill="none" xmlns="http://www.w3.org/2000/svg">
<path fill-rule="evenodd" clip-rule="evenodd" d="M25.457 5.25563L19.958 3.54305H11.8137L6.54305 5.08952V18.4668L8.88872 23.0521L16 28.3121L23.1113 23.0521L25.457 18.4668V5.25563ZM28 19.0795V3.38411L20.3448 1H11.4483L4 3.18543V19.0795L6.89655 24.7417L14.5517 30.404L15.2759 30.9007L16 31L16.7241 30.9007L17.4483 30.404L25.1034 24.7417L28 19.0795Z" fill="url(#paint0_linear_61_248)"/>
<path d="M29 10H31V13H29V10Z" fill="url(#paint1_linear_61_248)"/>
<path d="M1 10H3V13H1V10Z" fill="url(#paint2_linear_61_248)"/>
<path fill-rule="evenodd" clip-rule="evenodd" d="M16 9L9 10V17L16 16L23 17V10L16 9ZM20.1758 10.5364C20.1758 10.5364 20.3908 11.3133 20.7378 11.6603C21.0848 12.0073 21.8617 12.2223 21.8617 12.2223C21.8617 12.2223 21.0848 12.4372 20.7378 12.7842C20.3908 13.1312 20.1758 13.9081 20.1758 13.9081C20.1758 13.9081 19.9609 13.1312 19.6139 12.7842C19.2669 12.4372 18.49 12.2223 18.49 12.2223C18.49 12.2223 19.2669 12.0073 19.6139 11.6603C19.9609 11.3133 20.1758 10.5364 20.1758 10.5364Z" fill="url(#paint3_linear_61_248)"/>
<path d="M42.6562 22.9824H40L45.9277 9.0176H48.7109L54.7656 22.9824H51.9824L50.3906 19.1739H45.752L46.6406 16.9278H49.4531L47.2559 11.6836L42.6562 22.9824Z" fill="white"/>
<path d="M69.3848 22.9824V9.0176H75.9277C78.584 9.0176 79.9121 10.1016 79.9121 12.2696C79.9121 13.8581 79.0462 14.9942 77.3145 15.6778C79.1634 16.0228 80.0879 17.0808 80.0879 18.8516C80.0879 21.6055 78.6328 22.9824 75.7227 22.9824H69.3848ZM75.6152 20.7364C76.7611 20.7364 77.3145 19.9027 77.3145 18.7308C77.3145 17.279 76.4779 16.8008 74.7656 16.8008H73.9844V15.1309C76.8606 15.1309 77.1899 14.2899 77.1899 12.8511C77.1899 11.1287 75.7253 11.2637 74.7617 11.2637H71.9727V20.7364H75.6152Z" fill="white"/>
<path d="M83.7305 22.9824H81.0742L87.002 9.0176H89.7852L95.8398 22.9824H93.0566L91.4648 19.1739H86.8262L87.7148 16.9278H90.5273L88.3301 11.6836L83.7305 22.9824Z" fill="white"/>
<path d="M56.8108 22.9824V9.01755H63.3537C66.01 9.01755 67.3381 10.1015 67.3381 12.2695C67.3381 13.858 66.4722 14.9941 64.7404 15.6777C66.5894 16.0228 67.5139 17.0807 67.5139 18.8515C67.5139 21.6054 66.0588 22.9824 63.1486 22.9824H56.8108ZM63.0412 20.7363C64.1871 20.7363 64.7404 19.9026 64.7404 18.7308C64.7404 17.2789 63.9039 16.8008 62.1916 16.8008H61.4104V15.1308C64.2866 15.1308 64.6159 14.2899 64.6159 12.8511C64.6159 11.1287 63.1512 11.2636 62.1877 11.2636H59.3986V20.7363H63.0412Z" fill="white"/>
<path d="M112.047 22.4531C110.921 22.8828 109.706 23.0977 108.404 23.0977C103.346 23.0977 100.816 20.6725 100.816 15.8223C100.816 11.2324 103.258 8.9375 108.141 8.9375C109.54 8.9375 110.842 9.13281 112.047 9.52344V11.0859C110.842 10.6302 109.605 10.4023 108.336 10.4023C104.527 10.4023 102.623 12.209 102.623 15.8223C102.623 19.696 104.498 21.6328 108.248 21.6328C108.847 21.6328 109.511 21.5547 110.24 21.3984V16.6523H112.047V22.4531ZM115.035 23V9.03516H120.992C123.648 9.03516 124.977 10.1517 124.977 12.3848C124.977 14.2012 123.678 15.5456 121.08 16.418L125.875 23H123.492L119.049 16.7207V15.5391C121.718 15.1159 123.053 14.0905 123.053 12.4629C123.053 11.1738 122.311 10.5293 120.826 10.5293H116.842V23H115.035ZM129.205 15.9785C129.205 19.748 130.908 21.6328 134.312 21.6328C137.646 21.6328 139.312 19.748 139.312 15.9785C139.312 12.2611 137.646 10.4023 134.312 10.4023C130.908 10.4023 129.205 12.2611 129.205 15.9785ZM127.301 16.0371C127.301 11.304 129.638 8.9375 134.312 8.9375C138.915 8.9375 141.217 11.304 141.217 16.0371C141.217 20.7441 138.915 23.0977 134.312 23.0977C129.638 23.0977 127.301 20.7441 127.301 16.0371ZM143.961 17.6094V9.03516H145.768V17.6094C145.768 20.2917 147.102 21.6328 149.771 21.6328C152.441 21.6328 153.775 20.2917 153.775 17.6094V9.03516H155.582V17.6094C155.582 21.2682 153.645 23.0977 149.771 23.0977C145.898 23.0977 143.961 21.2682 143.961 17.6094ZM158.805 23V9.03516H164.469C167.32 9.03516 168.746 10.2819 168.746 12.7754C168.746 15.4902 166.796 17.1471 162.896 17.7461L162.525 16.2227C165.39 15.7995 166.822 14.6764 166.822 12.8535C166.822 11.304 165.982 10.5293 164.303 10.5293H160.611V23H158.805Z" fill="white"/>
<defs>
<linearGradient id="paint0_linear_61_248" x1="4.54074" y1="5.19409" x2="23.9156" y2="27.0995" gradientUnits="userSpaceOnUse">
<stop stop-color="#FF5454"/>
<stop offset="1" stop-color="#DA2E2E"/>
</linearGradient>
<linearGradient id="paint1_linear_61_248" x1="4.54074" y1="5.19409" x2="23.9156" y2="27.0995" gradientUnits="userSpaceOnUse">
<stop stop-color="#FF5454"/>
<stop offset="1" stop-color="#DA2E2E"/>
</linearGradient>
<linearGradient id="paint2_linear_61_248" x1="4.54074" y1="5.19409" x2="23.9156" y2="27.0995" gradientUnits="userSpaceOnUse">
<stop stop-color="#FF5454"/>
<stop offset="1" stop-color="#DA2E2E"/>
</linearGradient>
<linearGradient id="paint3_linear_61_248" x1="4.54074" y1="5.19409" x2="23.9156" y2="27.0995" gradientUnits="userSpaceOnUse">
<stop stop-color="#FF5454"/>
<stop offset="1" stop-color="#DA2E2E"/>
</linearGradient>
</defs>
</svg>
