<svg width="17" height="16" viewBox="0 0 17 16" fill="none" xmlns="http://www.w3.org/2000/svg">
<path d="M7.08384 7.12133C7.7094 8.22032 8.61952 9.13044 9.71851 9.756L10.3078 8.93067C10.4026 8.79796 10.5427 8.70459 10.7017 8.66822C10.8607 8.63186 11.0275 8.65502 11.1705 8.73333C12.1134 9.24862 13.1546 9.55852 14.2258 9.64267C14.393 9.65592 14.5491 9.73169 14.6629 9.85488C14.7767 9.97807 14.8399 10.1396 14.8398 10.3073V13.282C14.8399 13.4471 14.7787 13.6063 14.6681 13.7288C14.5575 13.8513 14.4054 13.9285 14.2412 13.9453C13.8864 13.982 13.5299 14.0002 13.1732 14C7.46651 14 2.83984 9.37333 2.83984 3.66667C2.83984 3.308 2.85784 2.952 2.89451 2.59867C2.91135 2.43446 2.9885 2.28235 3.11104 2.17176C3.23357 2.06116 3.39278 1.99996 3.55784 2H6.53251C6.70022 1.99998 6.86177 2.06317 6.98496 2.17697C7.10815 2.29077 7.18393 2.44682 7.19718 2.614C7.28133 3.68519 7.59123 4.72645 8.10651 5.66933C8.18482 5.81238 8.20799 5.97916 8.17162 6.13813C8.13526 6.2971 8.04189 6.43723 7.90918 6.532L7.08384 7.12133ZM5.40251 6.68333L6.66918 5.77867C6.3097 5.00273 6.06341 4.17923 5.93784 3.33333H4.17984C4.17584 3.444 4.17384 3.55533 4.17384 3.66667C4.17318 8.63733 8.20251 12.6667 13.1732 12.6667C13.2845 12.6667 13.3958 12.6647 13.5065 12.66V10.902C12.6606 10.7764 11.8371 10.5301 11.0612 10.1707L10.1565 11.4373C9.79229 11.2958 9.43852 11.1287 9.09784 10.9373L9.05918 10.9153C7.75156 10.1711 6.6687 9.08828 5.92451 7.78067L5.90251 7.742C5.71112 7.40133 5.54403 7.04756 5.40251 6.68333Z" fill="white"/>
</svg>
